<?xml version="1.0" standalone="no"?>
<!DOCTYPE svg PUBLIC "-//W3C//DTD SVG 1.1//EN" "http://www.w3.org/Graphics/SVG/1.1/DTD/svg11.dtd" >
<svg xmlns="http://www.w3.org/2000/svg" xmlns:xlink="http://www.w3.org/1999/xlink" version="1.1">
<metadata></metadata>
<defs>
<font id="samsungone200c" horiz-adv-x="1040" >
<font-face units-per-em="2048" ascent="1588" descent="-460" />
<missing-glyph horiz-adv-x="440" />
<glyph unicode="&#xfb01;" horiz-adv-x="1022" d="M34 994v58h168v212q0 134 75 209t209 75q44 0 70 -8v-60q-36 6 -70 6q-106 0 -161 -57t-55 -167v-210h250v-58h-250v-994h-68v994h-168zM738 1350q0 32 15 49t43 17t43 -17t15 -47q0 -32 -15 -49t-43 -17t-43 17t-15 47zM762 0v1052h68v-1052h-68z" />
<glyph unicode="&#xfb02;" horiz-adv-x="1066" d="M34 994v58h168v212q0 134 75 209t209 75q44 0 70 -8v-60q-36 6 -70 6q-106 0 -161 -57t-55 -167v-210h250v-58h-250v-994h-68v994h-168zM754 142v1398h68v-1392q0 -50 23 -74t73 -24q30 0 68 8l8 -56q-44 -12 -88 -12q-152 0 -152 152z" />
<glyph horiz-adv-x="0" />
<glyph horiz-adv-x="0" />
<glyph unicode="&#xd;" horiz-adv-x="0" />
<glyph horiz-adv-x="0" />
<glyph horiz-adv-x="520" />
<glyph unicode="&#x9;" horiz-adv-x="1024" />
<glyph horiz-adv-x="440" />
<glyph unicode=" "  horiz-adv-x="440" />
<glyph unicode="&#x09;" horiz-adv-x="440" />
<glyph unicode="&#xa0;" horiz-adv-x="440" />
<glyph unicode="!" horiz-adv-x="604" d="M236 46q0 34 17 52t49 18t49 -18t17 -50q0 -34 -17 -53t-49 -19t-49 18t-17 52zM264 1448h74l-8 -1118h-58z" />
<glyph unicode="&#x22;" horiz-adv-x="612" d="M136 1448h66l-6 -422h-54zM410 1448h66l-6 -422h-54z" />
<glyph unicode="#" horiz-adv-x="1178" d="M82 444v56h254l66 448h-242v56h250l66 444h66l-66 -444h310l66 444h66l-66 -444h244v-56h-252l-66 -448h236v-56h-244l-66 -444h-66l66 444h-310l-66 -444h-66l66 444h-246zM402 500h310l66 448h-310z" />
<glyph unicode="$" horiz-adv-x="994" d="M94 116l26 56q160 -94 336 -96v630l-60 16q-150 42 -220 127t-70 221q0 164 92 259t258 105v184h66v-182q170 -6 316 -78l-26 -60q-152 66 -290 74v-612l64 -18q148 -42 219 -127t71 -227q0 -164 -93 -262t-261 -112v-184h-66v182q-200 4 -362 104zM174 1080 q0 -116 55 -184t193 -108l34 -10v594q-140 -8 -211 -82t-71 -210zM522 78q140 12 212 89t72 215q0 118 -57 187t-189 107l-38 10v-608z" />
<glyph unicode="%" horiz-adv-x="1684" d="M120 1044q0 210 65 320t181 110t181 -110t65 -320t-65 -320t-181 -110t-181 110t-65 320zM190 1044q0 -182 45 -275t131 -93t131 93t45 275t-45 275t-131 93t-131 -93t-45 -275zM424 0l764 1448h72l-764 -1448h-72zM1072 404q0 210 65 320t181 110t181 -110t65 -320 t-65 -320t-181 -110t-181 110t-65 320zM1142 404q0 -182 45 -275t131 -93t131 93t45 275t-45 275t-131 93t-131 -93t-45 -275z" />
<glyph unicode="&#x26;" horiz-adv-x="1164" d="M128 290q0 190 164 334l156 136l-88 114q-76 98 -107 164t-31 144q0 138 84 215t234 77q148 0 230 -74t82 -204q0 -94 -50 -174t-176 -190l-90 -78l316 -408q4 12 16 36l154 334h64l-162 -360l-30 -64l200 -260l-50 -44l-186 240q-78 -132 -174 -193t-222 -61 q-158 0 -246 84t-88 232zM196 302q0 -126 70 -197t198 -71q110 0 194 59t160 189l-332 428l-136 -118q-84 -72 -119 -140t-35 -150zM288 1186q0 -62 27 -121t99 -153l84 -108l94 84q110 98 151 161t41 139q0 108 -64 167t-182 59t-184 -59t-66 -169z" />
<glyph unicode="'" horiz-adv-x="338" d="M136 1448h66l-6 -422h-54z" />
<glyph unicode="(" horiz-adv-x="536" d="M120 682q0 252 68 487t188 401l44 -32q-114 -166 -172 -384t-58 -472q0 -252 58 -469t172 -383l-44 -32q-120 154 -188 388t-68 496z" />
<glyph unicode=")" horiz-adv-x="536" d="M116 -170q114 166 172 383t58 469q0 254 -58 472t-172 384l44 32q120 -166 188 -401t68 -487q0 -262 -68 -496t-188 -388z" />
<glyph unicode="*" horiz-adv-x="988" d="M136 1134l20 60l310 -106l-4 360h64l-4 -360l310 106l20 -60l-316 -100l208 -286l-50 -36l-200 284l-200 -284l-50 36l208 286z" />
<glyph unicode="+" d="M122 696v64h364v422h68v-422h364v-64h-364v-420h-68v420h-364z" />
<glyph unicode="," horiz-adv-x="370" d="M32 -316q72 74 100 142t28 168q0 56 -8 120h72q8 -64 8 -118q0 -118 -38 -199t-126 -153z" />
<glyph unicode="-" horiz-adv-x="718" d="M114 552v62h490v-62h-490z" />
<glyph unicode="." horiz-adv-x="408" d="M138 46q0 34 17 52t49 18t49 -18t17 -50q0 -34 -17 -53t-49 -19t-49 18t-17 52z" />
<glyph unicode="/" horiz-adv-x="772" d="M54 -172l600 1646h66l-602 -1646h-64z" />
<glyph unicode="0" horiz-adv-x="1132" d="M140 724q0 382 107 566t319 184t319 -184t107 -566t-107 -566t-319 -184t-319 184t-107 566zM210 724q0 -354 86 -521t270 -167t270 167t86 521t-86 521t-270 167t-270 -167t-86 -521z" />
<glyph unicode="1" horiz-adv-x="774" d="M88 1300l358 148h60v-1448h-68v1376l-328 -130z" />
<glyph unicode="2" horiz-adv-x="950" d="M84 1344q70 60 168 95t196 35q164 0 260 -98t96 -264q0 -100 -42 -197t-142 -233l-456 -620h656v-62h-734v62l484 660q92 126 129 213t37 173q0 138 -78 219t-212 81q-84 0 -173 -31t-157 -87z" />
<glyph unicode="3" horiz-adv-x="1004" d="M84 82l30 60q70 -50 156 -77t168 -27q158 0 252 102t94 274q0 166 -90 264t-242 98q-74 0 -132 -18l-34 44l440 584h-622v62h708v-62l-426 -556q32 8 86 8q176 0 279 -113t103 -307q0 -202 -113 -323t-303 -121q-94 0 -189 30t-165 78z" />
<glyph unicode="4" horiz-adv-x="1038" d="M68 340v64l592 1044h92v-1046h178v-62h-178v-340h-66v340h-618zM144 402h542v968z" />
<glyph unicode="5" horiz-adv-x="992" d="M100 74l30 60q64 -46 142 -71t158 -25q162 0 257 106t95 286q0 174 -88 277t-238 103q-68 0 -137 -20t-121 -54l-42 22l40 690h598v-62h-540l-38 -578q50 30 117 47t133 17q178 0 282 -119t104 -319q0 -210 -114 -335t-308 -125q-90 0 -179 27t-151 73z" />
<glyph unicode="6" horiz-adv-x="1022" d="M108 448q0 130 47 258t157 290l322 478l50 -40l-318 -470q-30 -44 -100 -164q56 32 127 50t141 18q180 0 286 -121t106 -323q0 -206 -110 -328t-296 -122q-188 0 -300 129t-112 345zM178 448q0 -190 93 -301t251 -111q154 0 244 105t90 283t-91 281t-247 103 q-74 0 -148 -23t-134 -63q-58 -120 -58 -274z" />
<glyph unicode="7" horiz-adv-x="874" d="M44 1386v62h754v-62l-534 -1406l-62 24l528 1382h-686z" />
<glyph unicode="8" horiz-adv-x="1058" d="M108 352q0 136 89 243t247 161q-130 38 -203 135t-73 231q0 162 97 257t263 95t264 -95t98 -257q0 -130 -73 -226t-203 -138q158 -50 247 -156t89 -248q0 -174 -114 -277t-308 -103q-192 0 -306 103t-114 275zM178 352q0 -142 96 -229t254 -87t255 88t97 230 q0 130 -89 225t-263 149q-172 -56 -261 -151t-89 -225zM236 1114q0 -124 75 -207t221 -121q142 38 216 121t74 207q0 134 -81 216t-213 82t-212 -82t-80 -216z" />
<glyph unicode="9" horiz-adv-x="1022" d="M96 1024q0 206 110 328t296 122q188 0 300 -129t112 -345q0 -130 -47 -258t-157 -290l-322 -478l-50 40l318 470q30 46 100 164q-56 -32 -127 -50t-141 -18q-180 0 -286 121t-106 323zM166 1024q0 -178 91 -281t247 -103q74 0 148 23t134 63q58 120 58 274q0 190 -93 301 t-251 111q-154 0 -244 -105t-90 -283z" />
<glyph unicode=":" horiz-adv-x="488" d="M178 46q0 34 17 52t49 18t49 -18t17 -50q0 -34 -17 -53t-49 -19t-49 18t-17 52zM178 806q0 34 17 52t49 18t49 -18t17 -50q0 -34 -17 -53t-49 -19t-49 18t-17 52z" />
<glyph unicode=";" horiz-adv-x="488" d="M92 -316q72 74 100 142t28 168q0 56 -8 120h72q8 -64 8 -118q0 -118 -38 -199t-126 -153zM178 806q0 34 17 52t49 18t49 -18t17 -50q0 -34 -17 -53t-49 -19t-49 18t-17 52z" />
<glyph unicode="&#x3c;" horiz-adv-x="728" d="M104 722l472 598l48 -38l-438 -560l438 -560l-48 -38z" />
<glyph unicode="=" d="M164 466v64h712v-64h-712zM164 914v64h712v-64h-712z" />
<glyph unicode="&#x3e;" horiz-adv-x="728" d="M104 162l438 560l-438 560l48 38l472 -598l-472 -598z" />
<glyph unicode="?" horiz-adv-x="924" d="M114 1356q76 56 170 87t184 31q154 0 238 -88t84 -250q0 -102 -43 -178t-151 -162q-98 -80 -130 -145t-32 -183q0 -84 6 -138h-70q-6 60 -6 136q0 136 38 213t150 169q96 78 131 138t35 148q0 132 -65 203t-187 71q-158 0 -324 -108zM340 46q0 34 17 52t49 18t49 -18 t17 -50q0 -34 -17 -53t-49 -19t-49 18t-17 52z" />
<glyph unicode="@" horiz-adv-x="1482" d="M148 724q0 226 74 396t210 262t318 92q180 0 314 -85t207 -241t73 -366q0 -186 -71 -294t-193 -108q-56 0 -96 20t-54 58q-30 -44 -73 -65t-105 -21q-116 0 -180 92t-64 258t71 260t197 94q90 0 178 -64v-452q0 -58 32 -87t92 -29q92 0 145 90t53 248q0 194 -63 335 t-182 217t-281 76q-166 0 -286 -83t-184 -237t-64 -366t67 -366t192 -237t295 -83q154 0 280 68l24 -54q-58 -38 -139 -58t-165 -20q-188 0 -328 92t-217 262t-77 396zM576 722q0 -142 48 -215t144 -73q74 0 120 50v496q-56 34 -118 34q-96 0 -145 -75t-49 -217z" />
<glyph unicode="A" horiz-adv-x="1220" d="M64 0l504 1448h84l504 -1448h-74l-148 430h-650l-148 -430h-72zM306 494h606l-302 882z" />
<glyph unicode="B" horiz-adv-x="1192" d="M196 0v1448h70h382q170 0 263 -95t93 -271q0 -126 -50 -211t-144 -115q132 -16 203 -111t71 -257q0 -186 -96 -287t-272 -101h-484h-36zM266 64h458q140 0 214 83t74 239q0 158 -77 242t-219 84h-450v-648zM266 776h382q138 0 212 78t74 224q0 148 -76 227t-218 79h-374 v-608z" />
<glyph unicode="C" horiz-adv-x="1102" d="M108 702q0 236 68 410t196 268t300 94q82 0 172 -24t164 -68l-28 -56q-154 84 -312 84q-148 0 -258 -85t-170 -243t-60 -372q0 -322 133 -495t379 -173q176 0 298 76l28 -54q-56 -42 -144 -65t-184 -23q-282 0 -432 188t-150 538z" />
<glyph unicode="D" horiz-adv-x="1278" d="M196 0v1448h342q290 0 451 -189t161 -531q0 -346 -163 -537t-461 -191h-330zM266 64h272q262 0 401 169t139 489q0 324 -142 493t-410 169h-260v-1320z" />
<glyph unicode="E" horiz-adv-x="1056" d="M196 0v1448h744v-64h-674v-610h516v-64h-516v-646h698v-64h-768z" />
<glyph unicode="F" horiz-adv-x="980" d="M196 0v1448h732v-64h-662v-636h546v-64h-546v-684h-70z" />
<glyph unicode="G" horiz-adv-x="1236" d="M128 724q0 356 152 553t428 197q92 0 182 -23t158 -65l-26 -56q-148 78 -316 78q-246 0 -376 -175t-130 -509t130 -510t378 -176q152 0 302 64v546h-270v64h340v-642q-78 -46 -176 -71t-196 -25q-276 0 -428 197t-152 553z" />
<glyph unicode="H" horiz-adv-x="1296" d="M196 0v1448h70v-680h764v680h70v-1448h-70v704h-764v-704h-70z" />
<glyph unicode="I" horiz-adv-x="468" d="M200 0v1448h68v-1448h-68z" />
<glyph unicode="J" horiz-adv-x="800" d="M20 60l28 54q106 -76 236 -76q124 0 192 76t68 218v1116h70v-1120q0 -170 -86 -262t-244 -92q-74 0 -144 23t-120 63z" />
<glyph unicode="K" horiz-adv-x="1128" d="M196 0v1448h70v-876l738 876h84l-540 -640l552 -808h-84l-512 754l-238 -282v-472h-70z" />
<glyph unicode="L" horiz-adv-x="962" d="M196 0v1448h70v-1384h636v-64h-706z" />
<glyph unicode="M" horiz-adv-x="1554" d="M196 0v1448h88l492 -1066l492 1066h90v-1448h-68v1340l-476 -1030h-76l-476 1034v-1344h-66z" />
<glyph unicode="N" horiz-adv-x="1340" d="M196 0v1448h66l816 -1328v1328h66v-1448h-66l-816 1328v-1328h-66z" />
<glyph unicode="O" horiz-adv-x="1320" d="M128 724q0 368 137 559t395 191t395 -191t137 -559t-137 -559t-395 -191t-395 191t-137 559zM200 724q0 -338 117 -512t343 -174t343 174t117 512t-117 512t-343 174t-343 -174t-117 -512z" />
<glyph unicode="P" horiz-adv-x="1090" d="M196 0v1448h70h372q192 0 296 -115t104 -327q0 -214 -105 -331t-299 -117h-368v-558h-70zM266 622h372q160 0 244 98t84 282q0 186 -86 284t-246 98h-368v-762z" />
<glyph unicode="Q" horiz-adv-x="1320" d="M128 724q0 368 137 559t395 191t395 -191t137 -559q0 -246 -62 -414t-182 -252l250 -308l-50 -46l-256 320q-98 -50 -232 -50q-258 0 -395 191t-137 559zM200 724q0 -338 117 -512t343 -174t343 174t117 512t-117 512t-343 174t-343 -174t-117 -512z" />
<glyph unicode="R" horiz-adv-x="1162" d="M196 0v1448h70h356q190 0 293 -110t103 -312q0 -184 -85 -292t-245 -130l382 -604h-86l-372 600h-346v-600h-70zM266 664h356q158 0 242 92t84 264q0 176 -86 270t-246 94h-350v-720z" />
<glyph unicode="S" horiz-adv-x="1024" d="M84 88l28 56q180 -104 382 -104q170 0 261 82t91 236q0 132 -62 207t-204 113l-164 46q-162 44 -236 135t-74 239q0 180 105 277t299 97q92 0 191 -23t183 -63l-26 -60q-182 82 -354 82q-160 0 -245 -79t-85 -225q0 -128 61 -201t207 -113l164 -46q162 -44 236 -135 t74 -241q0 -188 -110 -290t-312 -102q-108 0 -216 30t-194 82z" />
<glyph unicode="T" horiz-adv-x="954" d="M64 1384v64h448h378v-64h-378v-1384h-70v1384h-378z" />
<glyph unicode="U" horiz-adv-x="1268" d="M186 482v966h70v-962q0 -220 95 -334t283 -114q184 0 281 115t97 333v962h70v-966q0 -244 -117 -376t-331 -132t-331 132t-117 376z" />
<glyph unicode="V" horiz-adv-x="1152" d="M72 1448h74l430 -1376l430 1376h74l-462 -1448h-84z" />
<glyph unicode="W" horiz-adv-x="1652" d="M76 1448h72l322 -1376l314 1374h84l314 -1374l322 1376h72l-352 -1448h-84l-314 1366l-314 -1366h-84z" />
<glyph unicode="X" horiz-adv-x="1104" d="M66 0l446 736l-434 712h78l398 -660l404 660h78l-446 -716l448 -732h-76l-412 680l-408 -680h-76z" />
<glyph unicode="Y" horiz-adv-x="1066" d="M56 1448h74l404 -842l402 842h74l-442 -912v-536h-70v536z" />
<glyph unicode="Z" horiz-adv-x="1006" d="M92 0v64l730 1320h-706v64h786v-64l-730 -1320h738v-64h-818z" />
<glyph unicode="[" horiz-adv-x="608" d="M196 -174v1716h354v-60h-288v-1596h288v-60h-354z" />
<glyph unicode="\" horiz-adv-x="772" d="M52 1474h66l600 -1646h-64z" />
<glyph unicode="]" horiz-adv-x="608" d="M58 -114h288v1596h-288v60h354v-1716h-354v60z" />
<glyph unicode="^" horiz-adv-x="718" d="M48 1062l270 386h80l272 -386h-78l-232 334l-234 -334h-78z" />
<glyph unicode="_" horiz-adv-x="1090" d="M196 -188h698v-62h-698v62z" />
<glyph unicode="`" horiz-adv-x="1000" d="M306 1556v12h76l200 -326v-12h-60z" />
<glyph unicode="a" horiz-adv-x="952" d="M82 278q0 186 153 274t475 90v114q0 128 -65 193t-189 65q-126 0 -246 -66l-22 60q58 34 130 52t140 18q152 0 236 -81t84 -227v-770h-66v146q-132 -168 -326 -168q-144 0 -224 79t-80 221zM152 278q0 -112 62 -175t174 -63q90 0 168 43t154 131v370q-286 -2 -422 -76 t-136 -230z" />
<glyph unicode="b" horiz-adv-x="1050" d="M188 0v986v554h68v-642q128 180 312 180q176 0 271 -145t95 -409q0 -262 -96 -406t-272 -144q-94 0 -175 45t-137 125v-144h-66zM256 220q56 -86 138 -134t174 -48q142 0 219 124t77 358q0 240 -78 367t-224 127q-88 0 -163 -45t-143 -141v-608z" />
<glyph unicode="c" horiz-adv-x="862" d="M108 546q0 162 48 282t137 185t209 65q66 0 138 -22t134 -62l-26 -54q-130 76 -248 76q-148 0 -235 -126t-87 -340q0 -246 88 -378t250 -132q132 0 242 74l28 -52q-54 -40 -126 -63t-146 -23q-196 0 -301 148t-105 422z" />
<glyph unicode="d" horiz-adv-x="1050" d="M116 530q0 264 96 407t272 143q92 0 173 -44t137 -124v628h68v-1472v-68h-66v158q-128 -182 -314 -182q-176 0 -271 145t-95 409zM186 534q0 -240 78 -367t224 -127q88 0 163 45t143 141v608q-56 86 -138 134t-174 48q-142 0 -219 -124t-77 -358z" />
<glyph unicode="e" horiz-adv-x="980" d="M112 526q0 264 101 408t289 144q176 0 275 -132t99 -370q0 -24 -4 -52h-690q0 -228 93 -356t257 -128q152 0 268 90l28 -52q-54 -48 -132 -75t-162 -27q-200 0 -311 144t-111 406zM184 582h624v18q0 196 -82 306t-230 110q-144 0 -223 -111t-89 -323z" />
<glyph unicode="f" horiz-adv-x="570" d="M34 994v58h168v212q0 134 75 209t209 75q44 0 70 -8v-60q-36 6 -70 6q-106 0 -161 -57t-55 -167v-210h250v-58h-250v-994h-68v994h-168z" />
<glyph unicode="g" horiz-adv-x="1052" d="M116 548q0 250 98 390t272 140q94 0 176 -45t136 -125v144h66v-1074q0 -192 -107 -297t-301 -105q-70 0 -135 15t-111 41l22 60q100 -52 230 -52q162 0 248 86t86 248v218q-60 -88 -139 -133t-173 -45q-174 0 -271 141t-97 393zM186 552q0 -234 77 -354t227 -120 q86 0 161 45t145 139v570q-54 86 -137 134t-175 48q-148 0 -223 -117t-75 -345z" />
<glyph unicode="h" horiz-adv-x="1060" d="M188 0v1540h68v-624q138 162 332 162q138 0 216 -81t78 -227v-770h-68v758q0 126 -59 191t-173 65q-88 0 -166 -40t-160 -124v-850h-68z" />
<glyph unicode="i" horiz-adv-x="452" d="M168 1350q0 32 15 49t43 17t43 -17t15 -47q0 -32 -15 -49t-43 -17t-43 17t-15 47zM192 0v1052h68v-1052h-68z" />
<glyph unicode="j" horiz-adv-x="452" d="M-42 -376q92 32 142 80t71 128t21 214v1006h68v-1006q0 -152 -25 -242t-85 -146t-172 -94zM168 1350q0 32 15 49t43 17t43 -17t15 -47q0 -32 -15 -49t-43 -17t-43 17t-15 47z" />
<glyph unicode="k" horiz-adv-x="960" d="M188 0v1540h68v-1108l546 620h82l-406 -456l426 -596h-82l-392 544l-174 -196v-348h-68z" />
<glyph unicode="l" horiz-adv-x="496" d="M184 142v1398h68v-1392q0 -50 23 -74t73 -24q30 0 68 8l8 -56q-44 -12 -88 -12q-152 0 -152 152z" />
<glyph unicode="m" horiz-adv-x="1634" d="M188 0v1052h66v-136q140 162 324 162q100 0 167 -46t95 -132q148 178 340 178q130 0 203 -81t73 -227v-770h-68v758q0 126 -54 191t-160 65q-82 0 -160 -41t-162 -129q6 -32 6 -74v-770h-68v758q0 126 -55 191t-163 65q-82 0 -159 -39t-157 -123v-852h-68z" />
<glyph unicode="n" horiz-adv-x="1056" d="M188 0v1052h66v-138q136 164 332 164q138 0 215 -81t77 -227v-770h-68v758q0 126 -58 191t-172 65q-86 0 -164 -40t-160 -124v-850h-68z" />
<glyph unicode="o" horiz-adv-x="1008" d="M116 526q0 270 101 411t287 141t287 -141t101 -411t-101 -411t-287 -141t-287 141t-101 411zM186 526q0 -242 81 -366t237 -124t237 124t81 366t-81 366t-237 124t-237 -124t-81 -366z" />
<glyph unicode="p" horiz-adv-x="1050" d="M188 -414v1400v66h66v-156q128 182 314 182q176 0 271 -145t95 -409q0 -262 -96 -406t-272 -144q-92 0 -173 44t-137 124v-556h-68zM256 220q56 -86 138 -134t174 -48q142 0 219 124t77 358q0 240 -78 367t-224 127q-88 0 -163 -45t-143 -141v-608z" />
<glyph unicode="q" horiz-adv-x="1050" d="M116 528q0 264 96 407t272 143q94 0 175 -45t137 -125v144h66v-986v-480h-68v568q-128 -180 -312 -180q-176 0 -271 145t-95 409zM186 532q0 -240 78 -367t224 -127q88 0 163 45t143 141v608q-56 86 -138 134t-174 48q-142 0 -219 -124t-77 -358z" />
<glyph unicode="r" horiz-adv-x="700" d="M188 0v1052h66v-166q58 96 126 142t152 46q66 0 132 -26l-20 -62q-66 22 -122 22q-74 0 -138 -48t-128 -148v-812h-68z" />
<glyph unicode="s" horiz-adv-x="814" d="M76 72l24 56q132 -90 294 -90q122 0 187 60t65 174q0 96 -42 147t-140 75l-142 34q-116 28 -171 92t-55 172q0 136 79 210t227 74q74 0 150 -21t140 -59l-26 -56q-136 74 -270 74q-114 0 -174 -55t-60 -161q0 -88 41 -136t137 -70l142 -34q120 -28 176 -96t56 -184 q0 -146 -83 -224t-237 -78q-86 0 -170 25t-148 71z" />
<glyph unicode="t" horiz-adv-x="640" d="M46 994v58h168v308h68v-308h290v-58h-290v-734q0 -106 43 -157t133 -51q50 0 108 16l14 -58q-60 -22 -128 -22q-118 0 -178 65t-60 191v750h-168z" />
<glyph unicode="u" d="M174 282v770h68v-758q0 -126 57 -191t167 -65q88 0 165 43t153 133v838h68v-1052h-66v150q-66 -86 -149 -131t-177 -45q-136 0 -211 81t-75 227z" />
<glyph unicode="v" horiz-adv-x="926" d="M80 1052h72l312 -988l310 988h72l-342 -1052h-80z" />
<glyph unicode="w" horiz-adv-x="1418" d="M84 1052h70l258 -992l258 992h80l256 -992l258 992h70l-288 -1052h-80l-256 962l-258 -962h-80z" />
<glyph unicode="x" horiz-adv-x="904" d="M72 0l342 538l-328 514h76l292 -464l298 464h76l-338 -518l342 -534h-76l-306 484l-302 -484h-76z" />
<glyph unicode="y" horiz-adv-x="922" d="M80 -372q126 44 211 132t139 232l-350 1060h72l310 -976l308 976h72l-350 -1068q-50 -158 -149 -265t-239 -153z" />
<glyph unicode="z" horiz-adv-x="824" d="M92 0v58l558 936h-544v58h616v-58l-558 -936h564v-58h-636z" />
<glyph unicode="{" horiz-adv-x="642" d="M56 654v60q104 2 157 53t53 135v264q0 134 26 216t85 129t163 71l16 -64q-88 -22 -135 -61t-67 -107t-20 -184v-264q0 -90 -37 -143t-113 -75q76 -22 113 -75t37 -143v-262q0 -116 20 -185t67 -108t135 -61l-16 -62q-104 24 -163 70t-85 128t-26 218v262q0 84 -53 135 t-157 53z" />
<glyph unicode="|" horiz-adv-x="456" d="M196 -500v2132h64v-2132h-64z" />
<glyph unicode="}" horiz-adv-x="642" d="M86 -150q88 22 135 61t67 108t20 185v262q0 90 37 143t113 75q-76 22 -113 75t-37 143v264q0 116 -20 184t-67 107t-135 61l16 64q104 -24 163 -71t85 -129t26 -216v-264q0 -84 53 -135t157 -53v-60q-104 -2 -157 -53t-53 -135v-262q0 -136 -26 -218t-85 -128t-163 -70z " />
<glyph unicode="~" d="M122 664q120 150 252 150q52 0 86 -18t74 -54q38 -32 66 -48t70 -16q100 0 208 126l40 -40q-120 -150 -252 -150q-52 0 -86 18t-74 54q-38 32 -66 48t-70 16q-100 0 -208 -126z" />
<glyph unicode="&#xa1;" horiz-adv-x="604" d="M236 1004q0 34 17 53t49 19t49 -18t17 -52t-17 -52t-49 -18t-49 18t-17 50zM266 -396l8 1118h58l8 -1118h-74z" />
<glyph unicode="&#xa2;" horiz-adv-x="870" d="M108 564q0 216 89 344t251 152v226h66v-222h4q62 0 128 -20t120 -54l-26 -52q-116 66 -226 66v-890h24q98 0 212 72l28 -50q-58 -40 -124 -62t-126 -22h-14v-222h-66v228q-164 26 -252 157t-88 349zM178 576q0 -194 69 -309t201 -143v876q-132 -20 -201 -129t-69 -295z " />
<glyph unicode="&#xa3;" horiz-adv-x="974" d="M128 698v60h188q-14 70 -54 156q-28 66 -40 109t-12 107q0 166 87 255t249 89q86 0 165 -32t135 -92l-34 -54q-52 56 -121 85t-145 29q-128 0 -197 -72t-69 -204q0 -50 11 -87t35 -93q46 -102 60 -196h340v-60h-334q4 -52 4 -82q0 -346 -184 -552h632v-64h-700v64l64 88 q122 170 122 442q0 60 -6 104h-196z" />
<glyph unicode="&#xa4;" horiz-adv-x="1056" d="M116 70l132 176q-120 130 -120 380q0 248 120 380l-132 174l52 42l132 -170q98 66 228 66t228 -66l132 170l52 -42l-132 -174q120 -132 120 -380q0 -250 -120 -380l132 -176l-52 -42l-132 172q-96 -68 -228 -68t-228 68l-132 -172zM198 626q0 -212 84 -321t246 -109 t246 109t84 321t-84 320t-246 108t-246 -108t-84 -320z" />
<glyph unicode="&#xa5;" horiz-adv-x="964" d="M48 1448h74l362 -818l360 818h72l-372 -816h254v-60h-282v-224h282v-60h-282v-288h-70v288h-282v60h282v224h-282v60h254z" />
<glyph unicode="&#xa6;" horiz-adv-x="456" d="M196 396h64v-896h-64v896zM196 738v894h64v-894h-64z" />
<glyph unicode="&#xa7;" horiz-adv-x="980" d="M140 -330l24 56q158 -88 326 -88q138 0 209 70t71 204q0 112 -53 177t-175 103l-116 36q-142 44 -211 124t-69 204q0 90 34 165t100 131q-126 90 -126 272q0 164 95 256t265 92q76 0 154 -19t140 -51l-24 -56q-124 62 -274 62q-142 0 -214 -70t-72 -206q0 -112 52 -178 t174 -104l118 -36q140 -44 206 -123t66 -203q0 -88 -34 -163t-98 -131q132 -90 132 -276q0 -162 -93 -253t-257 -91q-86 0 -178 25t-172 71zM214 562q0 -104 55 -167t181 -101l118 -36q52 -16 86 -32q116 104 116 256q0 104 -53 166t-175 100l-116 36q-48 14 -92 36 q-62 -54 -91 -117t-29 -141z" />
<glyph unicode="&#xa8;" horiz-adv-x="1000" d="M276 1350q0 30 15 47t41 17t41 -17t15 -47t-15 -47t-41 -17t-41 17t-15 47zM612 1350q0 30 15 47t41 17t41 -17t15 -47t-15 -47t-41 -17t-41 17t-15 47z" />
<glyph unicode="&#xa9;" horiz-adv-x="1544" d="M188 724q0 234 71 403t202 258t311 89t311 -89t202 -258t71 -403t-71 -403t-202 -258t-311 -89t-311 89t-202 258t-71 403zM258 724q0 -324 136 -505t378 -181t378 181t136 505t-136 505t-378 181t-378 -181t-136 -505zM526 726q0 170 68 264t188 94q44 0 90 -14t84 -40 l-28 -54q-80 46 -148 46q-92 0 -138 -73t-46 -215q0 -308 198 -308q76 0 146 46l20 -52q-32 -26 -78 -41t-94 -15q-124 0 -193 96t-69 266z" />
<glyph unicode="&#xaa;" horiz-adv-x="928" d="M142 826q0 146 122 213t384 63v90q0 104 -56 158t-166 54q-44 0 -83 -13t-107 -45l-18 50q66 36 116 50t106 14q128 0 200 -67t72 -185v-546q-64 -36 -138 -56t-140 -20q-142 0 -217 62t-75 178zM180 286v58h534v-58h-534zM208 828q0 -88 58 -136t168 -48q118 0 214 48 v354q-228 2 -334 -51t-106 -167z" />
<glyph unicode="&#xab;" horiz-adv-x="986" d="M90 562l364 458l44 -38l-334 -420l334 -422l-44 -38zM478 562l364 458l44 -38l-334 -420l334 -422l-44 -38z" />
<glyph unicode="&#xac;" d="M150 862v64h740v-64v-372h-68v372h-672z" />
<glyph unicode="&#xad;" horiz-adv-x="718" d="M114 552v62h490v-62h-490z" />
<glyph unicode="&#xae;" horiz-adv-x="1544" d="M188 724q0 234 71 403t202 258t311 89t311 -89t202 -258t71 -403t-71 -403t-202 -258t-311 -89t-311 89t-202 258t-71 403zM258 724q0 -324 136 -505t378 -181t378 181t136 505t-136 505t-378 181t-378 -181t-136 -505zM586 368v712h200q88 0 138 -59t50 -165 q0 -84 -33 -139t-93 -75l146 -274h-80l-136 262h-2h-122v-262h-68zM654 690h132q118 0 118 162q0 166 -128 166h-122v-328z" />
<glyph unicode="&#xaf;" horiz-adv-x="1000" d="M258 1310v60h484v-60h-484z" />
<glyph unicode="&#xb0;" horiz-adv-x="864" d="M146 1166q0 136 80 221t208 85q126 0 205 -85t79 -221t-79 -223t-205 -87q-128 0 -208 87t-80 223zM214 1166q0 -110 61 -178t159 -68q96 0 156 68t60 178q0 106 -60 174t-156 68q-98 0 -159 -68t-61 -174z" />
<glyph unicode="&#xb1;" d="M122 208v64h796v-64h-796zM122 848v64h364v370h68v-370h364v-64h-364v-368h-68v368h-364z" />
<glyph unicode="&#xb2;" horiz-adv-x="656" d="M64 1456q110 98 248 98q104 0 160 -58t56 -164q0 -66 -28 -124t-108 -160l-254 -326h408v-60h-480v60l280 366q70 92 93 139t23 97q0 82 -40 126t-118 44q-112 0 -214 -84z" />
<glyph unicode="&#xb3;" horiz-adv-x="698" d="M64 724l22 54q44 -32 97 -50t105 -18q104 0 158 57t54 165q0 86 -51 133t-149 47q-52 0 -92 -12l-26 36l266 344h-368v60h450v-60l-248 -310q14 2 40 2q116 0 181 -63t65 -175q0 -136 -73 -211t-207 -75q-66 0 -124 20t-100 56z" />
<glyph unicode="&#xb4;" horiz-adv-x="1000" d="M426 1230v12l216 326h76v-12l-232 -326h-60z" />
<glyph unicode="&#xb5;" horiz-adv-x="1054" d="M188 -414v1094v372h68v-758q0 -126 57 -191t167 -65q88 0 165 43t153 133v838h68v-1052h-66v150q-66 -86 -149 -131t-177 -45q-148 0 -218 106v-494h-68z" />
<glyph unicode="&#xb6;" horiz-adv-x="1052" d="M68 1064q0 182 114 283t316 101h288h70v-1448h-70v1382h-218v-1382h-70v684h-8q-200 0 -311 101t-111 279z" />
<glyph unicode="&#xb7;" horiz-adv-x="408" d="M138 618q0 34 17 52t49 18t49 -18t17 -50q0 -34 -17 -53t-49 -19t-49 18t-17 52z" />
<glyph unicode="&#xb8;" horiz-adv-x="1000" d="M332 -410l20 48q70 -36 144 -36q62 0 94 28t32 80q0 48 -29 73t-85 25q-48 0 -84 -18l-26 24l88 226l46 -34l-72 -152q36 8 54 8q82 0 125 -38t43 -112q0 -78 -49 -122t-137 -44q-92 0 -164 44z" />
<glyph unicode="&#xb9;" horiz-adv-x="586" d="M68 1442l214 98h56v-878h-66v802l-184 -78z" />
<glyph unicode="&#xba;" horiz-adv-x="948" d="M156 1024q0 214 83 326t237 112q152 0 234 -112t82 -326q0 -216 -83 -328t-235 -112t-235 112t-83 328zM208 286v58h534v-58h-534zM222 1024q0 -190 64 -287t188 -97t188 97t64 287q0 188 -63 285t-187 97t-189 -97t-65 -285z" />
<glyph unicode="&#xbb;" horiz-adv-x="986" d="M100 142l334 422l-334 420l44 38l364 -460l-364 -458zM488 142l334 422l-334 420l44 38l364 -460l-364 -458z" />
<glyph unicode="&#xbc;" horiz-adv-x="1448" d="M68 1350l214 98h56v-878h-66v802l-184 -78zM248 10l826 1458l52 -30l-826 -1458zM816 200v62l362 616h86v-616h108v-62h-108v-200h-66v200h-382zM892 262h306v530z" />
<glyph unicode="&#xbd;" horiz-adv-x="1524" d="M68 1350l214 98h56v-878h-66v802l-184 -78zM248 10l826 1458l52 -30l-826 -1458zM932 794q110 98 248 98q104 0 160 -58t56 -164q0 -66 -28 -124t-108 -160l-254 -326h408v-60h-480v60l280 366q70 92 93 139t23 97q0 82 -40 126t-118 44q-112 0 -214 -84z" />
<glyph unicode="&#xbe;" horiz-adv-x="1600" d="M64 632l22 54q44 -32 97 -50t105 -18q104 0 158 57t54 165q0 86 -51 133t-149 47q-52 0 -92 -12l-26 36l266 344h-368v60h450v-60l-248 -310q14 2 40 2q116 0 181 -63t65 -175q0 -136 -73 -211t-207 -75q-66 0 -124 20t-100 56zM400 10l826 1458l52 -30l-826 -1458z M968 200v62l362 616h86v-616h108v-62h-108v-200h-66v200h-382zM1044 262h306v530z" />
<glyph unicode="&#xbf;" horiz-adv-x="824" d="M134 -84q0 102 43 178t151 162q98 80 130 145t32 183q0 84 -6 138h70q6 -60 6 -136q0 -136 -38 -213t-150 -169q-96 -78 -131 -138t-35 -148q0 -132 65 -203t187 -71q158 0 324 108l28 -56q-76 -56 -170 -87t-184 -31q-154 0 -238 88t-84 250zM452 1004q0 34 17 53t49 19 t49 -18t17 -52t-17 -52t-49 -18t-49 18t-17 50z" />
<glyph unicode="&#xc0;" horiz-adv-x="1220" d="M64 0l504 1448h84l504 -1448h-74l-148 430h-650l-148 -430h-72zM306 494h606l-302 882zM322 1838v14h84l292 -276v-14h-68z" />
<glyph unicode="&#xc1;" horiz-adv-x="1220" d="M64 0l504 1448h84l504 -1448h-74l-148 430h-650l-148 -430h-72zM306 494h606l-302 882zM520 1562v14l310 276h84v-14l-326 -276h-68z" />
<glyph unicode="&#xc2;" horiz-adv-x="1220" d="M64 0l504 1448h84l504 -1448h-74l-148 430h-650l-148 -430h-72zM306 494h606l-302 882zM344 1562v14l234 276h64l234 -276v-14h-60l-206 234l-206 -234h-60z" />
<glyph unicode="&#xc3;" horiz-adv-x="1220" d="M64 0l504 1448h84l504 -1448h-74l-148 430h-650l-148 -430h-72zM306 494h606l-302 882zM328 1584q2 110 45 172t115 62q50 0 81 -26t63 -74q28 -40 49 -59t53 -19q94 0 106 174h52q-2 -110 -45 -172t-115 -62q-50 0 -81 26t-63 74q-28 40 -49 59t-53 19q-94 0 -106 -174 h-52z" />
<glyph unicode="&#xc4;" horiz-adv-x="1220" d="M64 0l504 1448h84l504 -1448h-74l-148 430h-650l-148 -430h-72zM306 494h606l-302 882zM382 1690q0 30 15 47t41 17t41 -17t15 -47t-15 -47t-41 -17t-41 17t-15 47zM726 1690q0 30 15 47t41 17t41 -17t15 -47t-15 -47t-41 -17t-41 17t-15 47z" />
<glyph unicode="&#xc5;" horiz-adv-x="1220" d="M64 0l504 1448h84l504 -1448h-74l-148 430h-650l-148 -430h-72zM306 494h606l-302 882zM430 1724q0 88 47 137t133 49t133 -49t47 -137t-47 -137t-133 -49t-133 49t-47 137zM490 1724q0 -66 31 -100t89 -34t89 34t31 100t-31 100t-89 34t-89 -34t-31 -100z" />
<glyph unicode="&#xc6;" horiz-adv-x="1656" d="M-4 0l796 1448h78h670v-64h-646v-610h488v-64h-488v-646h670v-64h-740v414h-524l-228 -414h-76zM336 478h488v886z" />
<glyph unicode="&#xc7;" horiz-adv-x="1102" d="M108 702q0 236 68 410t196 268t300 94q82 0 172 -24t164 -68l-28 -56q-154 84 -312 84q-148 0 -258 -85t-170 -243t-60 -372q0 -322 133 -495t379 -173q176 0 298 76l28 -54q-56 -42 -144 -65t-184 -23h-24l-58 -122q36 8 54 8q82 0 125 -38t43 -112q0 -78 -49 -122 t-137 -44q-92 0 -164 44l20 48q70 -36 144 -36q62 0 94 28t32 80q0 48 -29 73t-85 25q-48 0 -84 -18l-26 24l64 166q-244 26 -373 212t-129 510z" />
<glyph unicode="&#xc8;" horiz-adv-x="1056" d="M196 0v1448h744v-64h-674v-610h516v-64h-516v-646h698v-64h-768zM292 1838v14h84l292 -276v-14h-68z" />
<glyph unicode="&#xc9;" horiz-adv-x="1056" d="M196 0v1448h744v-64h-674v-610h516v-64h-516v-646h698v-64h-768zM490 1562v14l310 276h84v-14l-326 -276h-68z" />
<glyph unicode="&#xca;" horiz-adv-x="1056" d="M196 0v1448h744v-64h-674v-610h516v-64h-516v-646h698v-64h-768zM314 1562v14l234 276h64l234 -276v-14h-60l-206 234l-206 -234h-60z" />
<glyph unicode="&#xcb;" horiz-adv-x="1056" d="M196 0v1448h744v-64h-674v-610h516v-64h-516v-646h698v-64h-768zM352 1690q0 30 15 47t41 17t41 -17t15 -47t-15 -47t-41 -17t-41 17t-15 47zM696 1690q0 30 15 47t41 17t41 -17t15 -47t-15 -47t-41 -17t-41 17t-15 47z" />
<glyph unicode="&#xcc;" horiz-adv-x="468" d="M-54 1838v14h84l292 -276v-14h-68zM200 0v1448h68v-1448h-68z" />
<glyph unicode="&#xcd;" horiz-adv-x="468" d="M144 1562v14l310 276h84v-14l-326 -276h-68zM200 0v1448h68v-1448h-68z" />
<glyph unicode="&#xce;" horiz-adv-x="468" d="M-32 1562v14l234 276h64l234 -276v-14h-60l-206 234l-206 -234h-60zM200 0v1448h68v-1448h-68z" />
<glyph unicode="&#xcf;" horiz-adv-x="468" d="M6 1690q0 30 15 47t41 17t41 -17t15 -47t-15 -47t-41 -17t-41 17t-15 47zM200 0v1448h68v-1448h-68zM350 1690q0 30 15 47t41 17t41 -17t15 -47t-15 -47t-41 -17t-41 17t-15 47z" />
<glyph unicode="&#xd0;" horiz-adv-x="1270" d="M60 700v64h128v684h342q290 0 451 -189t161 -531q0 -346 -163 -537t-461 -191h-330v700h-128zM258 64h272q262 0 401 169t139 489q0 324 -142 493t-410 169h-260v-620h408v-64h-408v-636z" />
<glyph unicode="&#xd1;" horiz-adv-x="1340" d="M196 0v1448h66l816 -1328v1328h66v-1448h-66l-816 1328v-1328h-66zM388 1584q2 110 45 172t115 62q50 0 81 -26t63 -74q28 -40 49 -59t53 -19q94 0 106 174h52q-2 -110 -45 -172t-115 -62q-50 0 -81 26t-63 74q-28 40 -49 59t-53 19q-94 0 -106 -174h-52z" />
<glyph unicode="&#xd2;" horiz-adv-x="1320" d="M128 724q0 368 137 559t395 191t395 -191t137 -559t-137 -559t-395 -191t-395 191t-137 559zM200 724q0 -338 117 -512t343 -174t343 174t117 512t-117 512t-343 174t-343 -174t-117 -512zM372 1838v14h84l292 -276v-14h-68z" />
<glyph unicode="&#xd3;" horiz-adv-x="1320" d="M128 724q0 368 137 559t395 191t395 -191t137 -559t-137 -559t-395 -191t-395 191t-137 559zM200 724q0 -338 117 -512t343 -174t343 174t117 512t-117 512t-343 174t-343 -174t-117 -512zM570 1562v14l310 276h84v-14l-326 -276h-68z" />
<glyph unicode="&#xd4;" horiz-adv-x="1320" d="M128 724q0 368 137 559t395 191t395 -191t137 -559t-137 -559t-395 -191t-395 191t-137 559zM200 724q0 -338 117 -512t343 -174t343 174t117 512t-117 512t-343 174t-343 -174t-117 -512zM394 1562v14l234 276h64l234 -276v-14h-60l-206 234l-206 -234h-60z" />
<glyph unicode="&#xd5;" horiz-adv-x="1320" d="M128 724q0 368 137 559t395 191t395 -191t137 -559t-137 -559t-395 -191t-395 191t-137 559zM200 724q0 -338 117 -512t343 -174t343 174t117 512t-117 512t-343 174t-343 -174t-117 -512zM378 1584q2 110 45 172t115 62q50 0 81 -26t63 -74q28 -40 49 -59t53 -19 q94 0 106 174h52q-2 -110 -45 -172t-115 -62q-50 0 -81 26t-63 74q-28 40 -49 59t-53 19q-94 0 -106 -174h-52z" />
<glyph unicode="&#xd6;" horiz-adv-x="1320" d="M128 724q0 368 137 559t395 191t395 -191t137 -559t-137 -559t-395 -191t-395 191t-137 559zM200 724q0 -338 117 -512t343 -174t343 174t117 512t-117 512t-343 174t-343 -174t-117 -512zM432 1690q0 30 15 47t41 17t41 -17t15 -47t-15 -47t-41 -17t-41 17t-15 47z M776 1690q0 30 15 47t41 17t41 -17t15 -47t-15 -47t-41 -17t-41 17t-15 47z" />
<glyph unicode="&#xd7;" horiz-adv-x="1068" d="M156 364l332 364l-332 364l48 46l330 -360l330 360l48 -46l-332 -364l332 -364l-48 -46l-330 360l-330 -360z" />
<glyph unicode="&#xd8;" horiz-adv-x="1320" d="M72 -6l164 216q-108 192 -108 514q0 368 137 559t395 191q254 0 390 -184l132 178h66v-14l-164 -216q108 -192 108 -514q0 -368 -137 -559t-395 -191q-254 0 -390 184l-132 -178h-66v14zM198 724q0 -284 82 -454l728 964q-118 178 -348 178q-228 0 -345 -174t-117 -514z M312 214q118 -178 348 -178q228 0 345 174t117 514q0 284 -82 454z" />
<glyph unicode="&#xd9;" horiz-adv-x="1268" d="M186 482v966h70v-962q0 -220 95 -334t283 -114q184 0 281 115t97 333v962h70v-966q0 -244 -117 -376t-331 -132t-331 132t-117 376zM346 1838v14h84l292 -276v-14h-68z" />
<glyph unicode="&#xda;" horiz-adv-x="1268" d="M186 482v966h70v-962q0 -220 95 -334t283 -114q184 0 281 115t97 333v962h70v-966q0 -244 -117 -376t-331 -132t-331 132t-117 376zM544 1562v14l310 276h84v-14l-326 -276h-68z" />
<glyph unicode="&#xdb;" horiz-adv-x="1268" d="M186 482v966h70v-962q0 -220 95 -334t283 -114q184 0 281 115t97 333v962h70v-966q0 -244 -117 -376t-331 -132t-331 132t-117 376zM368 1562v14l234 276h64l234 -276v-14h-60l-206 234l-206 -234h-60z" />
<glyph unicode="&#xdc;" horiz-adv-x="1268" d="M186 482v966h70v-962q0 -220 95 -334t283 -114q184 0 281 115t97 333v962h70v-966q0 -244 -117 -376t-331 -132t-331 132t-117 376zM406 1690q0 30 15 47t41 17t41 -17t15 -47t-15 -47t-41 -17t-41 17t-15 47zM750 1690q0 30 15 47t41 17t41 -17t15 -47t-15 -47t-41 -17 t-41 17t-15 47z" />
<glyph unicode="&#xdd;" horiz-adv-x="1066" d="M56 1448h74l404 -842l402 842h74l-442 -912v-536h-70v536zM444 1562v14l310 276h84v-14l-326 -276h-68z" />
<glyph unicode="&#xde;" horiz-adv-x="1128" d="M196 0v1448h68v-272h366q192 0 296 -113t104 -321q0 -210 -105 -325t-299 -115h-362v-302h-68zM264 366h366q158 0 243 96t85 276q0 182 -86 278t-246 96h-362v-746z" />
<glyph unicode="&#xdf;" horiz-adv-x="1086" d="M188 0v1124q0 204 91 315t259 111q148 0 229 -89t81 -253q0 -282 -246 -394q186 -28 287 -144t101 -302q0 -182 -96 -282t-274 -100q-114 0 -210 34l20 60q88 -32 190 -32q146 0 223 80t77 232q0 182 -112 287t-324 119v58q150 56 223 151t73 233q0 134 -62 207t-178 73 q-136 0 -210 -94t-74 -270v-1124h-68z" />
<glyph unicode="&#xe0;" horiz-adv-x="952" d="M82 278q0 186 153 274t475 90v114q0 128 -65 193t-189 65q-126 0 -246 -66l-22 60q58 34 130 52t140 18q152 0 236 -81t84 -227v-770h-66v146q-132 -168 -326 -168q-144 0 -224 79t-80 221zM152 278q0 -112 62 -175t174 -63q90 0 168 43t154 131v370q-286 -2 -422 -76 t-136 -230zM256 1556v12h76l200 -326v-12h-60z" />
<glyph unicode="&#xe1;" horiz-adv-x="952" d="M82 278q0 186 153 274t475 90v114q0 128 -65 193t-189 65q-126 0 -246 -66l-22 60q58 34 130 52t140 18q152 0 236 -81t84 -227v-770h-66v146q-132 -168 -326 -168q-144 0 -224 79t-80 221zM152 278q0 -112 62 -175t174 -63q90 0 168 43t154 131v370q-286 -2 -422 -76 t-136 -230zM376 1230v12l216 326h76v-12l-232 -326h-60z" />
<glyph unicode="&#xe2;" horiz-adv-x="952" d="M82 278q0 186 153 274t475 90v114q0 128 -65 193t-189 65q-126 0 -246 -66l-22 60q58 34 130 52t140 18q152 0 236 -81t84 -227v-770h-66v146q-132 -168 -326 -168q-144 0 -224 79t-80 221zM152 278q0 -112 62 -175t174 -63q90 0 168 43t154 131v370q-286 -2 -422 -76 t-136 -230zM210 1230v12l206 326h64l206 -326v-12h-60l-178 280l-178 -280h-60z" />
<glyph unicode="&#xe3;" horiz-adv-x="952" d="M82 278q0 186 153 274t475 90v114q0 128 -65 193t-189 65q-126 0 -246 -66l-22 60q58 34 130 52t140 18q152 0 236 -81t84 -227v-770h-66v146q-132 -168 -326 -168q-144 0 -224 79t-80 221zM152 278q0 -112 62 -175t174 -63q90 0 168 43t154 131v370q-286 -2 -422 -76 t-136 -230zM168 1244q2 110 45 172t115 62q50 0 81 -26t63 -74q28 -40 49 -59t53 -19q94 0 106 174h52q-2 -110 -45 -172t-115 -62q-50 0 -81 26t-63 74q-28 40 -49 59t-53 19q-94 0 -106 -174h-52z" />
<glyph unicode="&#xe4;" horiz-adv-x="952" d="M82 278q0 186 153 274t475 90v114q0 128 -65 193t-189 65q-126 0 -246 -66l-22 60q58 34 130 52t140 18q152 0 236 -81t84 -227v-770h-66v146q-132 -168 -326 -168q-144 0 -224 79t-80 221zM152 278q0 -112 62 -175t174 -63q90 0 168 43t154 131v370q-286 -2 -422 -76 t-136 -230zM226 1350q0 30 15 47t41 17t41 -17t15 -47t-15 -47t-41 -17t-41 17t-15 47zM562 1350q0 30 15 47t41 17t41 -17t15 -47t-15 -47t-41 -17t-41 17t-15 47z" />
<glyph unicode="&#xe5;" horiz-adv-x="952" d="M82 278q0 186 153 274t475 90v114q0 128 -65 193t-189 65q-126 0 -246 -66l-22 60q58 34 130 52t140 18q152 0 236 -81t84 -227v-770h-66v146q-132 -168 -326 -168q-144 0 -224 79t-80 221zM152 278q0 -112 62 -175t174 -63q90 0 168 43t154 131v370q-286 -2 -422 -76 t-136 -230zM270 1394q0 88 47 137t133 49t133 -49t47 -137t-47 -137t-133 -49t-133 49t-47 137zM330 1394q0 -130 120 -130t120 130t-120 130t-120 -130z" />
<glyph unicode="&#xe6;" horiz-adv-x="1534" d="M82 270q0 182 148 269t460 89v110q0 136 -62 206t-182 70q-118 0 -238 -66l-20 60q58 34 126 52t134 18q122 0 198 -62t98 -174q42 112 124 174t198 62q172 0 268 -133t96 -369q0 -24 -4 -52h-670q0 -228 90 -356t250 -128q148 0 258 90l28 -52q-52 -48 -127 -75 t-157 -27q-120 0 -208 57t-138 165q-86 -112 -178 -166t-198 -54q-138 0 -216 77t-78 215zM150 270q0 -108 60 -169t168 -61q100 0 182 50t168 166q-38 120 -38 268v46q-278 -2 -409 -75t-131 -225zM758 582h604v18q0 196 -80 306t-222 110q-138 0 -216 -111t-86 -323z" />
<glyph unicode="&#xe7;" horiz-adv-x="862" d="M108 546q0 162 48 282t137 185t209 65q66 0 138 -22t134 -62l-26 -54q-130 76 -248 76q-148 0 -235 -126t-87 -340q0 -246 88 -378t250 -132q132 0 242 74l28 -52q-54 -40 -126 -63t-146 -23h-16l-58 -122q36 8 54 8q82 0 125 -38t43 -112q0 -78 -49 -122t-137 -44 q-92 0 -164 44l20 48q70 -36 144 -36q62 0 94 28t32 80q0 48 -29 73t-85 25q-48 0 -84 -18l-26 24l66 168q-164 26 -250 171t-86 393z" />
<glyph unicode="&#xe8;" horiz-adv-x="980" d="M112 526q0 264 101 408t289 144q176 0 275 -132t99 -370q0 -24 -4 -52h-690q0 -228 93 -356t257 -128q152 0 268 90l28 -52q-54 -48 -132 -75t-162 -27q-200 0 -311 144t-111 406zM184 582h624v18q0 196 -82 306t-230 110q-144 0 -223 -111t-89 -323zM306 1556v12h76 l200 -326v-12h-60z" />
<glyph unicode="&#xe9;" horiz-adv-x="980" d="M112 526q0 264 101 408t289 144q176 0 275 -132t99 -370q0 -24 -4 -52h-690q0 -228 93 -356t257 -128q152 0 268 90l28 -52q-54 -48 -132 -75t-162 -27q-200 0 -311 144t-111 406zM184 582h624v18q0 196 -82 306t-230 110q-144 0 -223 -111t-89 -323zM426 1230v12 l216 326h76v-12l-232 -326h-60z" />
<glyph unicode="&#xea;" horiz-adv-x="980" d="M112 526q0 264 101 408t289 144q176 0 275 -132t99 -370q0 -24 -4 -52h-690q0 -228 93 -356t257 -128q152 0 268 90l28 -52q-54 -48 -132 -75t-162 -27q-200 0 -311 144t-111 406zM184 582h624v18q0 196 -82 306t-230 110q-144 0 -223 -111t-89 -323zM260 1230v12 l206 326h64l206 -326v-12h-60l-178 280l-178 -280h-60z" />
<glyph unicode="&#xeb;" horiz-adv-x="980" d="M112 526q0 264 101 408t289 144q176 0 275 -132t99 -370q0 -24 -4 -52h-690q0 -228 93 -356t257 -128q152 0 268 90l28 -52q-54 -48 -132 -75t-162 -27q-200 0 -311 144t-111 406zM184 582h624v18q0 196 -82 306t-230 110q-144 0 -223 -111t-89 -323zM276 1350 q0 30 15 47t41 17t41 -17t15 -47t-15 -47t-41 -17t-41 17t-15 47zM612 1350q0 30 15 47t41 17t41 -17t15 -47t-15 -47t-41 -17t-41 17t-15 47z" />
<glyph unicode="&#xec;" horiz-adv-x="452" d="M32 1556v12h76l200 -326v-12h-60zM192 0v1052h68v-1052h-68z" />
<glyph unicode="&#xed;" horiz-adv-x="452" d="M152 1230v12l216 326h76v-12l-232 -326h-60zM192 0v1052h68v-1052h-68z" />
<glyph unicode="&#xee;" horiz-adv-x="452" d="M-14 1230v12l206 326h64l206 -326v-12h-60l-178 280l-178 -280h-60zM192 0v1052h68v-1052h-68z" />
<glyph unicode="&#xef;" horiz-adv-x="452" d="M30 1350q0 30 15 47t41 17t41 -17t15 -47t-15 -47t-41 -17t-41 17t-15 47zM192 0v1052h68v-1052h-68zM310 1350q0 30 15 47t41 17t41 -17t15 -47t-15 -47t-41 -17t-41 17t-15 47z" />
<glyph unicode="&#xf0;" horiz-adv-x="1010" d="M106 506q0 270 98 411t280 141q116 0 203 -61t129 -171q-54 338 -276 518l-254 -178l-28 46l238 166q-96 66 -216 102l-40 12l16 56l40 -12q152 -46 256 -120l166 118l30 -46l-152 -104q152 -124 225 -327t73 -495q0 -288 -103 -438t-293 -150q-188 0 -290 136t-102 396z M176 506q0 -232 82 -351t240 -119q160 0 243 119t83 351q0 230 -86 360t-240 130q-158 0 -240 -124t-82 -366z" />
<glyph unicode="&#xf1;" horiz-adv-x="1056" d="M188 0v1052h66v-138q136 164 332 164q138 0 215 -81t77 -227v-770h-68v758q0 126 -58 191t-172 65q-86 0 -164 -40t-160 -124v-850h-68zM252 1244q2 110 45 172t115 62q50 0 81 -26t63 -74q28 -40 49 -59t53 -19q94 0 106 174h52q-2 -110 -45 -172t-115 -62q-50 0 -81 26 t-63 74q-28 40 -49 59t-53 19q-94 0 -106 -174h-52z" />
<glyph unicode="&#xf2;" horiz-adv-x="1008" d="M116 526q0 270 101 411t287 141t287 -141t101 -411t-101 -411t-287 -141t-287 141t-101 411zM186 526q0 -242 81 -366t237 -124t237 124t81 366t-81 366t-237 124t-237 -124t-81 -366zM310 1556v12h76l200 -326v-12h-60z" />
<glyph unicode="&#xf3;" horiz-adv-x="1008" d="M116 526q0 270 101 411t287 141t287 -141t101 -411t-101 -411t-287 -141t-287 141t-101 411zM186 526q0 -242 81 -366t237 -124t237 124t81 366t-81 366t-237 124t-237 -124t-81 -366zM430 1230v12l216 326h76v-12l-232 -326h-60z" />
<glyph unicode="&#xf4;" horiz-adv-x="1008" d="M116 526q0 270 101 411t287 141t287 -141t101 -411t-101 -411t-287 -141t-287 141t-101 411zM186 526q0 -242 81 -366t237 -124t237 124t81 366t-81 366t-237 124t-237 -124t-81 -366zM264 1230v12l206 326h64l206 -326v-12h-60l-178 280l-178 -280h-60z" />
<glyph unicode="&#xf5;" horiz-adv-x="1008" d="M116 526q0 270 101 411t287 141t287 -141t101 -411t-101 -411t-287 -141t-287 141t-101 411zM186 526q0 -242 81 -366t237 -124t237 124t81 366t-81 366t-237 124t-237 -124t-81 -366zM222 1244q2 110 45 172t115 62q50 0 81 -26t63 -74q28 -40 49 -59t53 -19 q94 0 106 174h52q-2 -110 -45 -172t-115 -62q-50 0 -81 26t-63 74q-28 40 -49 59t-53 19q-94 0 -106 -174h-52z" />
<glyph unicode="&#xf6;" horiz-adv-x="1008" d="M116 526q0 270 101 411t287 141t287 -141t101 -411t-101 -411t-287 -141t-287 141t-101 411zM186 526q0 -242 81 -366t237 -124t237 124t81 366t-81 366t-237 124t-237 -124t-81 -366zM280 1350q0 30 15 47t41 17t41 -17t15 -47t-15 -47t-41 -17t-41 17t-15 47zM616 1350 q0 30 15 47t41 17t41 -17t15 -47t-15 -47t-41 -17t-41 17t-15 47z" />
<glyph unicode="&#xf7;" d="M150 696v64h740v-64h-740zM454 390q0 32 18 50t48 18t48 -18t18 -50t-18 -50t-48 -18t-48 18t-18 50zM454 1064q0 32 18 50t48 18t48 -18t18 -50t-18 -50t-48 -18t-48 18t-18 50z" />
<glyph unicode="&#xf8;" horiz-adv-x="1008" d="M58 -8l130 170q-72 136 -72 364q0 270 101 411t289 141q178 0 276 -128l104 138h64v-12l-134 -176q76 -140 76 -374q0 -270 -100 -411t-288 -141q-184 0 -284 136l-98 -130h-64v12zM184 526q0 -186 48 -304l510 674q-82 122 -236 122q-160 0 -241 -125t-81 -367zM260 166 q82 -132 244 -132q158 0 239 124t81 368q0 194 -52 316z" />
<glyph unicode="&#xf9;" d="M174 282v770h68v-758q0 -126 57 -191t167 -65q88 0 165 43t153 133v838h68v-1052h-66v150q-66 -86 -149 -131t-177 -45q-136 0 -211 81t-75 227zM320 1556v12h76l200 -326v-12h-60z" />
<glyph unicode="&#xfa;" d="M174 282v770h68v-758q0 -126 57 -191t167 -65q88 0 165 43t153 133v838h68v-1052h-66v150q-66 -86 -149 -131t-177 -45q-136 0 -211 81t-75 227zM440 1230v12l216 326h76v-12l-232 -326h-60z" />
<glyph unicode="&#xfb;" d="M174 282v770h68v-758q0 -126 57 -191t167 -65q88 0 165 43t153 133v838h68v-1052h-66v150q-66 -86 -149 -131t-177 -45q-136 0 -211 81t-75 227zM274 1230v12l206 326h64l206 -326v-12h-60l-178 280l-178 -280h-60z" />
<glyph unicode="&#xfc;" d="M174 282v770h68v-758q0 -126 57 -191t167 -65q88 0 165 43t153 133v838h68v-1052h-66v150q-66 -86 -149 -131t-177 -45q-136 0 -211 81t-75 227zM290 1350q0 30 15 47t41 17t41 -17t15 -47t-15 -47t-41 -17t-41 17t-15 47zM626 1350q0 30 15 47t41 17t41 -17t15 -47 t-15 -47t-41 -17t-41 17t-15 47z" />
<glyph unicode="&#xfd;" horiz-adv-x="922" d="M80 -372q126 44 211 132t139 232l-350 1060h72l310 -976l308 976h72l-350 -1068q-50 -158 -149 -265t-239 -153zM392 1230v12l216 326h76v-12l-232 -326h-60z" />
<glyph unicode="&#xfe;" horiz-adv-x="1050" d="M188 -414v1400v554h68v-642q128 180 312 180q176 0 271 -145t95 -409q0 -262 -96 -406t-272 -144q-92 0 -173 44t-137 124v-556h-68zM256 220q56 -86 138 -134t174 -48q142 0 219 124t77 358q0 240 -78 367t-224 127q-88 0 -163 -45t-143 -141v-608z" />
<glyph unicode="&#xff;" horiz-adv-x="922" d="M80 -372q126 44 211 132t139 232l-350 1060h72l310 -976l308 976h72l-350 -1068q-50 -158 -149 -265t-239 -153zM242 1350q0 30 15 47t41 17t41 -17t15 -47t-15 -47t-41 -17t-41 17t-15 47zM578 1350q0 30 15 47t41 17t41 -17t15 -47t-15 -47t-41 -17t-41 17t-15 47z" />
<glyph unicode="&#x152;" horiz-adv-x="1784" d="M128 724q0 356 137 540t395 184h334h674v-64h-646v-610h488v-64h-488v-646h670v-64h-740h-292q-258 0 -395 184t-137 540zM200 724q0 -326 117 -493t343 -167h292v1320h-292q-226 0 -343 -167t-117 -493z" />
<glyph unicode="&#x153;" horiz-adv-x="1646" d="M116 526q0 270 99 411t281 141q128 0 216 -74t126 -218q36 140 123 216t217 76q172 0 268 -133t96 -369q0 -24 -4 -52h-670q0 -228 90 -356t250 -128q148 0 258 90l28 -52q-52 -48 -127 -75t-157 -27q-138 0 -233 76t-137 220q-38 -146 -127 -222t-219 -76 q-182 0 -280 141t-98 411zM186 526q0 -242 78 -366t230 -124q154 0 233 124t79 366t-79 366t-231 124t-231 -124t-79 -366zM870 582h604v18q0 196 -80 306t-222 110q-138 0 -216 -111t-86 -323z" />
<glyph unicode="&#x178;" horiz-adv-x="1066" d="M56 1448h74l404 -842l402 842h74l-442 -912v-536h-70v536zM306 1690q0 30 15 47t41 17t41 -17t15 -47t-15 -47t-41 -17t-41 17t-15 47zM650 1690q0 30 15 47t41 17t41 -17t15 -47t-15 -47t-41 -17t-41 17t-15 47z" />
<glyph unicode="&#x2c6;" horiz-adv-x="1000" d="M262 1230v12l206 326h64l206 -326v-12h-60l-178 280l-178 -280h-60z" />
<glyph unicode="&#x2dc;" horiz-adv-x="1000" d="M218 1244q2 110 45 172t115 62q50 0 81 -26t63 -74q28 -40 49 -59t53 -19q94 0 106 174h52q-2 -110 -45 -172t-115 -62q-50 0 -81 26t-63 74q-28 40 -49 59t-53 19q-94 0 -106 -174h-52z" />
<glyph unicode="&#x2000;" horiz-adv-x="955" />
<glyph unicode="&#x2001;" horiz-adv-x="1910" />
<glyph unicode="&#x2002;" horiz-adv-x="955" />
<glyph unicode="&#x2003;" horiz-adv-x="1910" />
<glyph unicode="&#x2004;" horiz-adv-x="636" />
<glyph unicode="&#x2005;" horiz-adv-x="477" />
<glyph unicode="&#x2006;" horiz-adv-x="318" />
<glyph unicode="&#x2007;" horiz-adv-x="318" />
<glyph unicode="&#x2008;" horiz-adv-x="238" />
<glyph unicode="&#x2009;" horiz-adv-x="382" />
<glyph unicode="&#x200a;" horiz-adv-x="106" />
<glyph unicode="&#x2010;" horiz-adv-x="718" d="M114 552v62h490v-62h-490z" />
<glyph unicode="&#x2011;" horiz-adv-x="718" d="M114 552v62h490v-62h-490z" />
<glyph unicode="&#x2012;" horiz-adv-x="718" d="M114 552v62h490v-62h-490z" />
<glyph unicode="&#x2013;" horiz-adv-x="1096" d="M114 554v60h868v-60h-868z" />
<glyph unicode="&#x2014;" horiz-adv-x="1674" d="M114 554v60h1446v-60h-1446z" />
<glyph unicode="&#x2018;" horiz-adv-x="340" d="M118 1154q0 118 32 194t110 138l34 -38q-64 -62 -88 -127t-24 -165q0 -66 8 -116h-64q-8 50 -8 114z" />
<glyph unicode="&#x2019;" horiz-adv-x="300" d="M46 1092q64 62 88 127t24 165q0 66 -8 116h64q8 -50 8 -114q0 -118 -32 -194t-110 -138z" />
<glyph unicode="&#x201a;" horiz-adv-x="420" d="M86 -242q64 62 88 127t24 165q0 66 -8 116h64q8 -50 8 -114q0 -118 -32 -194t-110 -138z" />
<glyph unicode="&#x201c;" horiz-adv-x="676" d="M118 1154q0 118 32 194t110 138l34 -38q-64 -62 -88 -127t-24 -165q0 -66 8 -116h-64q-8 50 -8 114zM382 1154q0 118 32 194t110 138l34 -38q-64 -62 -88 -127t-24 -165q0 -66 8 -116h-64q-8 50 -8 114z" />
<glyph unicode="&#x201d;" horiz-adv-x="604" d="M46 1092q64 62 88 127t24 165q0 66 -8 116h64q8 -50 8 -114q0 -118 -32 -194t-110 -138zM310 1092q64 62 88 127t24 165q0 66 -8 116h64q8 -50 8 -114q0 -118 -32 -194t-110 -138z" />
<glyph unicode="&#x201e;" horiz-adv-x="684" d="M86 -242q64 62 88 127t24 165q0 66 -8 116h64q8 -50 8 -114q0 -118 -32 -194t-110 -138zM350 -242q64 62 88 127t24 165q0 66 -8 116h64q8 -50 8 -114q0 -118 -32 -194t-110 -138z" />
<glyph unicode="&#x2022;" horiz-adv-x="878" d="M126 694q0 156 82 243t230 87t231 -87t83 -243t-83 -243t-231 -87t-230 87t-82 243z" />
<glyph unicode="&#x2026;" horiz-adv-x="1176" d="M138 46q0 34 17 52t49 18t49 -18t17 -50q0 -34 -17 -53t-49 -19t-49 18t-17 52zM522 46q0 34 17 52t49 18t49 -18t17 -50q0 -34 -17 -53t-49 -19t-49 18t-17 52zM906 46q0 34 17 52t49 18t49 -18t17 -50q0 -34 -17 -53t-49 -19t-49 18t-17 52z" />
<glyph unicode="&#x202f;" horiz-adv-x="382" />
<glyph unicode="&#x2039;" horiz-adv-x="598" d="M90 562l364 458l44 -38l-334 -420l334 -422l-44 -38z" />
<glyph unicode="&#x203a;" horiz-adv-x="598" d="M100 142l334 422l-334 420l44 38l364 -460l-364 -458z" />
<glyph unicode="&#x205f;" horiz-adv-x="477" />
<glyph unicode="&#x20ac;" horiz-adv-x="1058" d="M88 538v60h140q-4 80 -4 124q0 46 4 130h-140v60h146q34 270 157 416t321 146q66 0 135 -22t127 -62l-26 -54q-124 76 -234 76q-176 0 -281 -127t-133 -373h450v-60h-456q-4 -84 -4 -130q0 -44 4 -124h456v-60h-450q28 -244 133 -371t281 -127q112 0 232 72l28 -52 q-58 -40 -127 -62t-137 -22q-200 0 -322 146t-154 416h-146z" />
<glyph unicode="&#x2122;" horiz-adv-x="1654" d="M84 1392v56h462v-56h-200v-824h-62v824h-200zM756 568v880h68l284 -604l280 604h70v-880h-62v764l-272 -584h-34l-276 588l2 -768h-60z" />
<glyph unicode="&#x25fc;" horiz-adv-x="1050" d="M0 0v1050h1050v-1050h-1050z" />
<glyph unicode="&#xfb03;" horiz-adv-x="1592" d="M34 994v58h168v212q0 134 75 209t209 75q44 0 70 -8v-60q-36 6 -70 6q-106 0 -161 -57t-55 -167v-210h250v-58h-250v-994h-68v994h-168zM604 994v58h168v212q0 134 75 209t209 75q44 0 70 -8v-60q-36 6 -70 6q-106 0 -161 -57t-55 -167v-210h250v-58h-250v-994h-68v994 h-168zM1308 1350q0 32 15 49t43 17t43 -17t15 -47q0 -32 -15 -49t-43 -17t-43 17t-15 47zM1332 0v1052h68v-1052h-68z" />
<glyph unicode="&#xfb04;" horiz-adv-x="1636" d="M34 994v58h168v212q0 134 75 209t209 75q44 0 70 -8v-60q-36 6 -70 6q-106 0 -161 -57t-55 -167v-210h250v-58h-250v-994h-68v994h-168zM604 994v58h168v212q0 134 75 209t209 75q44 0 70 -8v-60q-36 6 -70 6q-106 0 -161 -57t-55 -167v-210h250v-58h-250v-994h-68v994 h-168zM1324 142v1398h68v-1392q0 -50 23 -74t73 -24q30 0 68 8l8 -56q-44 -12 -88 -12q-152 0 -152 152z" />
</font>
</defs>
</svg>
